<svg width="14" height="14" viewBox="0 0 14 14" fill="none" xmlns="http://www.w3.org/2000/svg">
<path d="M6.74512 0C7.29729 0.00013192 7.74512 0.447797 7.74512 1V5.74512H12.5C13.0523 5.74512 13.5 6.19283 13.5 6.74512C13.4999 7.29735 13.0522 7.74512 12.5 7.74512H7.74512V12.5C7.74512 13.0522 7.29729 13.4999 6.74512 13.5C6.19283 13.5 5.74512 13.0523 5.74512 12.5V7.74512H1C0.447756 7.74512 6.6237e-05 7.29735 0 6.74512C2.41411e-08 6.19283 0.447715 5.74512 1 5.74512H5.74512V1C5.74512 0.447715 6.19283 0 6.74512 0Z" fill="#F6F6F6"/>
</svg>
